<svg xmlns="http://www.w3.org/2000/svg" version="1.1" xmlns:xlink="http://www.w3.org/1999/xlink" xmlns:svgjs="http://svgjs.com/svgjs" width="1920" height="1080" preserveAspectRatio="none" viewBox="0 0 1920 1080"><g mask="url(&quot;#SvgjsMask1019&quot;)" fill="none"><rect width="1920" height="1080" x="0" y="0" fill="rgba(0, 139, 139, 1)"></rect><path d="M0,809.685C147.741,790.183,244.885,654.805,359.989,560.153C461.096,477.011,558.639,396.797,633.06,289.109C720.716,162.27,833.354,34.866,829.521,-119.267C825.585,-277.504,739.515,-436.201,612.666,-530.878C492.369,-620.666,323.283,-568.525,177.84,-605.669C39.659,-640.959,-81.202,-782.755,-218.184,-743.067C-355.123,-703.391,-392.357,-528.305,-479.264,-415.285C-560.039,-310.24,-700.158,-234.29,-710.965,-102.221C-721.751,29.601,-579.17,119.484,-533.169,243.49C-481.841,381.856,-527.901,556.559,-426.727,664C-321.556,775.686,-152.091,829.761,0,809.685" fill="#006f6f"></path><path d="M1920 1796.175C2052.008 1803.501 2115.635 1628.934 2227.866 1559.048 2342.4719999999998 1487.683 2512.081 1497.5819999999999 2583.505 1383.013 2655.2870000000003 1267.871 2631.014 1112.292 2586.2309999999998 984.21 2545.369 867.342 2431.146 800.864 2347.916 709.2090000000001 2267.048 620.155 2221.465 479.326 2104.042 453.211 1986.327 427.03099999999995 1891.571 556.378 1773.623 581.485 1640.872 609.7429999999999 1478.288 519.527 1375.594 608.27 1275.201 695.024 1294.152 858.285 1299.9099999999999 990.844 1304.942 1106.68 1344.9679999999998 1216.2 1406.2759999999998 1314.6100000000001 1462.093 1404.2060000000001 1556.325 1453.8600000000001 1633.339 1526.0529999999999 1731.107 1617.701 1786.199 1788.749 1920 1796.175" fill="#00a7a7"></path></g><defs><mask id="SvgjsMask1019"><rect width="1920" height="1080" fill="#ffffff"></rect></mask></defs></svg>